<svg xmlns="http://www.w3.org/2000/svg" width="1600" height="1000" viewBox="0 0 1600 1000">
  <rect width="1600" height="1000" fill="#f6eee9"/>
  <text x="60" y="64" fill="#2a1f27" font-family="Arial, 'PingFang SC', sans-serif" font-size="34" font-weight="800">方向 B｜柔和品牌型</text>
  <text x="60" y="100" fill="#7a6670" font-family="Arial, 'PingFang SC', sans-serif" font-size="18">更贴近内衣品牌气质：亲肤、轻柔、精致，同时保留内部工具的清晰效率。</text>

  <rect x="60" y="132" width="1480" height="808" rx="28" fill="#fffaf7" stroke="#ecd9d2"/>
  <rect x="60" y="132" width="210" height="808" rx="28" fill="#241b26"/>
  <rect x="230" y="132" width="40" height="808" fill="#241b26"/>
  <text x="92" y="190" fill="#ffffff" font-family="Arial, 'PingFang SC', sans-serif" font-size="24" font-weight="800">电商生图</text>
  <text x="92" y="224" fill="#ffffff" font-family="Arial, 'PingFang SC', sans-serif" font-size="24" font-weight="800">AI 中台</text>
  <text x="92" y="292" fill="#bdaab3" font-family="Arial, 'PingFang SC', sans-serif" font-size="15" font-weight="700">设计工作台</text>
  <rect x="84" y="320" width="156" height="46" rx="12" fill="#6e5060"/>
  <text x="108" y="350" fill="#ffffff" font-family="Arial, 'PingFang SC', sans-serif" font-size="17" font-weight="700">视觉智能体</text>
  <text x="108" y="408" fill="#e6d6dd" font-family="Arial, 'PingFang SC', sans-serif" font-size="17" font-weight="700">模板库管理</text>
  <text x="108" y="464" fill="#e6d6dd" font-family="Arial, 'PingFang SC', sans-serif" font-size="17" font-weight="700">提示词反推</text>
  <text x="108" y="520" fill="#e6d6dd" font-family="Arial, 'PingFang SC', sans-serif" font-size="17" font-weight="700">视频智能生成</text>

  <rect x="270" y="132" width="1270" height="74" fill="#fffaf7"/>
  <text x="310" y="180" fill="#2a1f27" font-family="Arial, 'PingFang SC', sans-serif" font-size="26" font-weight="800">视觉智能体</text>
  <rect x="1128" y="152" width="126" height="34" rx="17" fill="#ffffff" stroke="#ecd9d2"/>
  <text x="1150" y="175" fill="#6e5060" font-family="Arial, 'PingFang SC', sans-serif" font-size="14" font-weight="700">自然舒适</text>
  <rect x="1270" y="152" width="210" height="34" rx="17" fill="#ffffff" stroke="#ecd9d2"/>
  <text x="1292" y="175" fill="#6e5060" font-family="Arial, 'PingFang SC', sans-serif" font-size="14" font-weight="700">模型：Nano Banana Pro</text>

  <rect x="270" y="206" width="1270" height="620" fill="#fbf6f3"/>
  <rect x="986" y="252" width="390" height="80" rx="26" fill="#6e5060"/>
  <text x="1018" y="284" fill="#ffffff" font-family="Arial, 'PingFang SC', sans-serif" font-size="18" font-weight="700">生成莱赛尔内衣亲肤主图</text>
  <text x="1018" y="312" fill="#f1dfe6" font-family="Arial, 'PingFang SC', sans-serif" font-size="14">柔光、无痕、轻盈、生活方式</text>

  <circle cx="505" cy="374" r="25" fill="#c06f7a"/>
  <text x="497" y="383" fill="#ffffff" font-family="Arial" font-size="20" font-weight="800">✦</text>
  <rect x="548" y="340" width="710" height="426" rx="24" fill="#ffffff" stroke="#ecd9d2"/>
  <text x="586" y="386" fill="#b39aa5" font-family="Arial" font-size="14" font-weight="800">Agent</text>
  <text x="586" y="424" fill="#2a1f27" font-family="Arial, 'PingFang SC', sans-serif" font-size="23" font-weight="800">已识别商品卖点和品牌风格</text>
  <rect x="586" y="448" width="632" height="58" rx="14" fill="#fff3ee"/>
  <text x="610" y="483" fill="#7a6670" font-family="Arial, 'PingFang SC', sans-serif" font-size="16">莱赛尔面料 · 居家柔光 · 卖点：亲肤、无痕、无压感</text>
  <rect x="586" y="526" width="144" height="30" rx="15" fill="#fff1f2"/>
  <text x="608" y="546" fill="#be5b69" font-family="Arial, 'PingFang SC', sans-serif" font-size="14" font-weight="800">弱化身材评价</text>
  <rect x="742" y="526" width="150" height="30" rx="15" fill="#fff1f2"/>
  <text x="764" y="546" fill="#be5b69" font-family="Arial, 'PingFang SC', sans-serif" font-size="14" font-weight="800">保留面料纹理</text>
  <rect x="904" y="526" width="170" height="30" rx="15" fill="#fff1f2"/>
  <text x="926" y="546" fill="#be5b69" font-family="Arial, 'PingFang SC', sans-serif" font-size="14" font-weight="800">柔和生活方式</text>
  <rect x="586" y="584" width="300" height="142" rx="18" fill="#ffffff" stroke="#ecd9d2"/>
  <rect x="586" y="584" width="300" height="98" rx="18" fill="#f7e6dd"/>
  <circle cx="680" cy="622" r="30" fill="#ead3c8"/>
  <circle cx="792" cy="654" r="44" fill="#eab089" opacity=".7"/>
  <text x="736" y="666" text-anchor="middle" fill="#5f4b55" font-family="Arial, 'PingFang SC', sans-serif" font-size="18" font-weight="800">柔光主图</text>
  <text x="608" y="712" fill="#7a6670" font-family="Arial, 'PingFang SC', sans-serif" font-size="15" font-weight="700">通过率</text>
  <text x="832" y="712" fill="#be5b69" font-family="Arial" font-size="15" font-weight="800">94%</text>
  <rect x="918" y="584" width="300" height="142" rx="18" fill="#ffffff" stroke="#ecd9d2"/>
  <rect x="918" y="584" width="300" height="98" rx="18" fill="#f7e6dd"/>
  <circle cx="1012" cy="622" r="30" fill="#ead3c8"/>
  <circle cx="1124" cy="654" r="44" fill="#eab089" opacity=".7"/>
  <text x="1068" y="666" text-anchor="middle" fill="#5f4b55" font-family="Arial, 'PingFang SC', sans-serif" font-size="18" font-weight="800">卖点头图</text>
  <text x="940" y="712" fill="#7a6670" font-family="Arial, 'PingFang SC', sans-serif" font-size="15" font-weight="700">复用率</text>
  <text x="1164" y="712" fill="#be5b69" font-family="Arial" font-size="15" font-weight="800">41%</text>

  <rect x="560" y="850" width="760" height="66" rx="28" fill="#ffffff" stroke="#ecd9d2"/>
  <text x="590" y="890" fill="#b39aa5" font-family="Arial, 'PingFang SC', sans-serif" font-size="17" font-weight="700">描述想要的氛围、卖点和平台尺寸...</text>
  <circle cx="1272" cy="883" r="22" fill="#c06f7a"/>
  <text x="1264" y="891" fill="#fff" font-family="Arial" font-size="20">→</text>
</svg>
