<svg xmlns="http://www.w3.org/2000/svg" width="1600" height="1000" viewBox="0 0 1600 1000">
  <defs>
    <linearGradient id="bg" x1="0" x2="0" y1="0" y2="1"><stop offset="0" stop-color="#f8fbff"/><stop offset="1" stop-color="#eaf1ff"/></linearGradient>
    <linearGradient id="ai" x1="0" x2="1" y1="0" y2="1"><stop offset="0" stop-color="#4f46e5"/><stop offset="1" stop-color="#0ea5e9"/></linearGradient>
  </defs>
  <rect width="1600" height="1000" fill="url(#bg)"/>
  <text x="60" y="64" fill="#111827" font-family="Arial, 'PingFang SC', sans-serif" font-size="34" font-weight="800">方向 C｜智能工作台型</text>
  <text x="60" y="100" fill="#64748b" font-family="Arial, 'PingFang SC', sans-serif" font-size="18">突出 AI Agent 的自动拆解、执行步骤和多模型协同，整体更有智能中台感。</text>

  <rect x="60" y="132" width="1480" height="808" rx="28" fill="#ffffff" opacity=".72" stroke="#dbeafe"/>
  <rect x="60" y="132" width="210" height="808" rx="28" fill="#10172b"/>
  <rect x="230" y="132" width="40" height="808" fill="#10172b"/>
  <text x="92" y="190" fill="#ffffff" font-family="Arial, 'PingFang SC', sans-serif" font-size="24" font-weight="800">电商生图</text>
  <text x="92" y="224" fill="#ffffff" font-family="Arial, 'PingFang SC', sans-serif" font-size="24" font-weight="800">AI 中台</text>
  <text x="92" y="292" fill="#94a3b8" font-family="Arial, 'PingFang SC', sans-serif" font-size="15" font-weight="700">Agent 工作区</text>
  <rect x="84" y="320" width="156" height="46" rx="12" fill="#263354"/>
  <text x="108" y="350" fill="#ffffff" font-family="Arial, 'PingFang SC', sans-serif" font-size="17" font-weight="700">视觉智能体</text>
  <text x="108" y="408" fill="#cbd5e1" font-family="Arial, 'PingFang SC', sans-serif" font-size="17" font-weight="700">模板库管理</text>
  <text x="108" y="464" fill="#cbd5e1" font-family="Arial, 'PingFang SC', sans-serif" font-size="17" font-weight="700">提示词反推</text>
  <text x="108" y="520" fill="#cbd5e1" font-family="Arial, 'PingFang SC', sans-serif" font-size="17" font-weight="700">视频智能生成</text>

  <rect x="270" y="132" width="1270" height="74" fill="#ffffff" opacity=".55"/>
  <text x="310" y="180" fill="#111827" font-family="Arial, 'PingFang SC', sans-serif" font-size="26" font-weight="800">视觉智能体</text>
  <rect x="1128" y="152" width="126" height="34" rx="17" fill="#ffffff" stroke="#dbeafe"/>
  <text x="1150" y="175" fill="#4f46e5" font-family="Arial, 'PingFang SC', sans-serif" font-size="14" font-weight="700">Agent 模式</text>
  <rect x="1270" y="152" width="210" height="34" rx="17" fill="#ffffff" stroke="#dbeafe"/>
  <text x="1292" y="175" fill="#4f46e5" font-family="Arial, 'PingFang SC', sans-serif" font-size="14" font-weight="700">自动选择模板</text>

  <rect x="270" y="206" width="1270" height="620" fill="#f4f8ff"/>
  <rect x="990" y="252" width="390" height="80" rx="26" fill="#29334f"/>
  <text x="1022" y="284" fill="#ffffff" font-family="Arial, 'PingFang SC', sans-serif" font-size="18" font-weight="700">上传商品图和参考图</text>
  <text x="1022" y="312" fill="#d5def1" font-family="Arial, 'PingFang SC', sans-serif" font-size="14">自动匹配模板和平台规范</text>

  <circle cx="505" cy="374" r="25" fill="url(#ai)"/>
  <text x="497" y="383" fill="#ffffff" font-family="Arial" font-size="20" font-weight="800">✦</text>
  <rect x="548" y="340" width="720" height="430" rx="24" fill="#ffffff" opacity=".86" stroke="#dbeafe"/>
  <text x="586" y="386" fill="#94a3b8" font-family="Arial" font-size="14" font-weight="800">Agent · 4 步执行</text>
  <text x="586" y="424" fill="#111827" font-family="Arial, 'PingFang SC', sans-serif" font-size="23" font-weight="800">正在组合模板与合规规则</text>
  <rect x="586" y="448" width="642" height="58" rx="14" fill="#eef2ff"/>
  <text x="610" y="483" fill="#64748b" font-family="Arial, 'PingFang SC', sans-serif" font-size="16">解析商品图 → 反推参考风格 → 注入内衣规则 → 输出候选图</text>
  <rect x="586" y="526" width="142" height="30" rx="15" fill="#eef2ff"/>
  <text x="608" y="546" fill="#4f46e5" font-family="Arial, 'PingFang SC', sans-serif" font-size="14" font-weight="800">模板匹配 86%</text>
  <rect x="740" y="526" width="116" height="30" rx="15" fill="#eef2ff"/>
  <text x="762" y="546" fill="#4f46e5" font-family="Arial, 'PingFang SC', sans-serif" font-size="14" font-weight="800">合规通过</text>
  <rect x="868" y="526" width="126" height="30" rx="15" fill="#eef2ff"/>
  <text x="890" y="546" fill="#4f46e5" font-family="Arial, 'PingFang SC', sans-serif" font-size="14" font-weight="800">预计 3 分钟</text>
  <rect x="586" y="584" width="304" height="146" rx="18" fill="#ffffff" stroke="#dbeafe"/>
  <rect x="586" y="584" width="304" height="102" rx="18" fill="#f3f6ff"/>
  <circle cx="682" cy="622" r="30" fill="#ead3c8"/>
  <circle cx="790" cy="650" r="46" fill="#a5b4fc" opacity=".35"/>
  <text x="738" y="668" text-anchor="middle" fill="#475569" font-family="Arial, 'PingFang SC', sans-serif" font-size="18" font-weight="800">候选结果</text>
  <text x="608" y="716" fill="#64748b" font-family="Arial, 'PingFang SC', sans-serif" font-size="15" font-weight="700">主图</text>
  <text x="816" y="716" fill="#4f46e5" font-family="Arial, 'PingFang SC', sans-serif" font-size="15" font-weight="800">生成中</text>
  <rect x="924" y="584" width="304" height="146" rx="18" fill="#ffffff" stroke="#dbeafe"/>
  <rect x="924" y="584" width="304" height="102" rx="18" fill="#f3f6ff"/>
  <circle cx="1020" cy="622" r="30" fill="#ead3c8"/>
  <circle cx="1128" cy="650" r="46" fill="#38bdf8" opacity=".26"/>
  <text x="1076" y="668" text-anchor="middle" fill="#475569" font-family="Arial, 'PingFang SC', sans-serif" font-size="18" font-weight="800">风格变体</text>
  <text x="946" y="716" fill="#64748b" font-family="Arial, 'PingFang SC', sans-serif" font-size="15" font-weight="700">详情</text>
  <text x="1154" y="716" fill="#4f46e5" font-family="Arial, 'PingFang SC', sans-serif" font-size="15" font-weight="800">生成中</text>

  <rect x="560" y="850" width="760" height="66" rx="28" fill="#ffffff" stroke="#dbeafe"/>
  <text x="590" y="890" fill="#94a3b8" font-family="Arial, 'PingFang SC', sans-serif" font-size="17" font-weight="700">向 Agent 提问，或上传商品图、参考图、规则文件...</text>
  <circle cx="1272" cy="883" r="22" fill="url(#ai)"/>
  <text x="1264" y="891" fill="#fff" font-family="Arial" font-size="20">→</text>
</svg>
